<svg width="33" height="33" viewBox="0 0 33 33" fill="none" xmlns="http://www.w3.org/2000/svg">
<path d="M32.5 16.1436C32.5 7.307 25.3366 0.143555 16.5 0.143555C7.66344 0.143555 0.5 7.307 0.5 16.1436C0.5 24.9801 7.66344 32.1436 16.5 32.1436C25.3366 32.1436 32.5 24.9801 32.5 16.1436Z" fill="#184FEB"/>
<path d="M7.93593 16.543C8.42784 16.454 8.93451 16.4075 9.45203 16.4075C14.1312 16.4075 17.9244 20.2087 17.9244 24.8977C17.9244 25.0281 17.9215 25.1578 17.9157 25.2867C22.5692 24.8596 26.2139 20.9379 26.2139 16.1632C26.2139 11.103 22.1205 7.00098 17.0711 7.00098C12.0216 7.00098 7.92822 11.103 7.92822 16.1632C7.92822 16.2904 7.93081 16.417 7.93593 16.543Z" fill="#3ED9EB"/>
</svg>
