<svg width="120" height="32" viewBox="0 0 120 32" fill="none" xmlns="http://www.w3.org/2000/svg">
<rect x="0.57143" width="32" height="32" rx="16" fill="#184FEB"/>
<path d="M8.00747 16.3991C8.49938 16.3101 9.00605 16.2636 9.52356 16.2636C14.2027 16.2636 17.9959 20.0648 17.9959 24.7538C17.9959 24.8842 17.993 25.0139 17.9872 25.1428C22.6407 24.7157 26.2855 20.794 26.2855 16.0193C26.2855 10.9591 22.1921 6.85711 17.1426 6.85711C12.0932 6.85711 7.99975 10.9591 7.99975 16.0193C7.99975 16.1465 8.00234 16.2731 8.00747 16.3991Z" fill="#3ED9EB"/>
<path d="M43.5213 24V7.82797H46.5865L54.3866 19.6082V7.82797H57.2458V24H54.2493L46.3806 12.2884V24H43.5213ZM65.339 24.1601C64.0885 24.1601 63.0211 23.9009 62.1366 23.3824C61.2674 22.8639 60.6041 22.1472 60.1466 21.2322C59.7043 20.302 59.4832 19.2269 59.4832 18.007C59.4832 16.787 59.712 15.7119 60.1694 14.7817C60.6422 13.8362 61.3132 13.0967 62.1824 12.5629C63.0668 12.0292 64.1267 11.7623 65.3619 11.7623C66.2768 11.7623 67.0774 11.9301 67.7637 12.2656C68.4499 12.5858 69.0217 13.028 69.4792 13.5923C69.952 14.1565 70.3027 14.797 70.5314 15.5137C70.7602 16.2304 70.8669 16.9853 70.8517 17.7782C70.8364 17.9612 70.8212 18.1442 70.8059 18.3272C70.7907 18.495 70.7678 18.6779 70.7373 18.8762H62.2739C62.3196 19.4099 62.4569 19.8979 62.6856 20.3401C62.9296 20.7824 63.2651 21.1331 63.6921 21.3923C64.1343 21.6516 64.6833 21.7812 65.339 21.7812C65.7202 21.7812 66.0862 21.7355 66.437 21.644C66.7877 21.5372 67.0927 21.3847 67.3519 21.1865C67.6264 20.9882 67.8094 20.7366 67.9009 20.4316H70.6916C70.4933 21.3008 70.1273 22.0099 69.5936 22.5589C69.0599 23.1079 68.4194 23.512 67.6722 23.7713C66.9402 24.0305 66.1625 24.1601 65.339 24.1601ZM62.3196 16.7946H68.1296C68.1296 16.2914 68.0153 15.8339 67.7865 15.4222C67.5578 15.0105 67.2299 14.6902 66.8029 14.4615C66.3912 14.2175 65.888 14.0955 65.2933 14.0955C64.6528 14.0955 64.119 14.2251 63.6921 14.4844C63.2651 14.7436 62.9372 15.0791 62.7085 15.4908C62.4797 15.9025 62.3501 16.3372 62.3196 16.7946ZM71.228 24L75.4826 17.8469L71.4568 11.9453H74.7049L77.3126 15.994L79.8516 11.9453H83.0311L79.0052 17.9155L83.3285 24H80.0575L77.1982 19.8369L74.3389 24H71.228ZM89.6628 24C88.6868 24 87.8786 23.8704 87.2381 23.6111C86.6129 23.3519 86.1402 22.9325 85.82 22.3531C85.515 21.7736 85.3625 20.9959 85.3625 20.0199V14.4157H83.5097V11.9453H85.3625V8.58282H88.1531V11.9453H90.9666V14.4157H88.1531V19.6539C88.1531 20.2639 88.2599 20.729 88.4734 21.0492C88.6868 21.3695 89.1672 21.5296 89.9144 21.5296H90.8751V24H89.6628ZM92.8232 24V7.82797H95.6825V14.7817H97.9928L102.568 7.82797H105.816L100.417 15.7424L105.816 24H102.499L98.13 17.3894H95.6825V24H92.8232ZM106.942 24V11.9453H109.732V24H106.942ZM108.337 10.55C107.803 10.55 107.376 10.3899 107.056 10.0696C106.736 9.7494 106.576 9.33004 106.576 8.81156C106.576 8.30833 106.743 7.89659 107.079 7.57635C107.414 7.24087 107.834 7.07312 108.337 7.07312C108.825 7.07312 109.244 7.23324 109.595 7.55348C109.946 7.87372 110.121 8.29308 110.121 8.81156C110.121 9.33004 109.953 9.7494 109.618 10.0696C109.283 10.3899 108.856 10.55 108.337 10.55ZM117.24 24C116.264 24 115.456 23.8704 114.816 23.6111C114.191 23.3519 113.718 22.9325 113.398 22.3531C113.093 21.7736 112.94 20.9959 112.94 20.0199V14.4157H111.087V11.9453H112.94V8.58282H115.731V11.9453H118.544V14.4157H115.731V19.6539C115.731 20.2639 115.838 20.729 116.051 21.0492C116.264 21.3695 116.745 21.5296 117.492 21.5296H118.453V24H117.24Z" fill="#030E09"/>
</svg>
